<svg width="900" height="620" viewBox="0 0 900 620" xmlns="http://www.w3.org/2000/svg">
  <defs>
    <linearGradient id="gold" x1="0" y1="0" x2="0" y2="1">
      <stop offset="0%" stop-color="#E8C97A"/>
      <stop offset="45%" stop-color="#F0D98A"/>
      <stop offset="100%" stop-color="#9A7230"/>
    </linearGradient>
    <linearGradient id="key-grad" x1="0" y1="0" x2="1" y2="1">
      <stop offset="0%" stop-color="#F0D98A"/>
      <stop offset="40%" stop-color="#E8C97A"/>
      <stop offset="100%" stop-color="#9A7230"/>
    </linearGradient>
    <linearGradient id="shield-bg" x1="0" y1="0" x2="0" y2="1">
      <stop offset="0%" stop-color="#181818"/>
      <stop offset="100%" stop-color="#0C0C0C"/>
    </linearGradient>
    <linearGradient id="gold-h" x1="0" y1="0" x2="1" y2="0">
      <stop offset="0%" stop-color="#9A7230" stop-opacity="0"/>
      <stop offset="50%" stop-color="#E8C97A" stop-opacity="0.58"/>
      <stop offset="100%" stop-color="#9A7230" stop-opacity="0"/>
    </linearGradient>
    <filter id="glow" x="-30%" y="-30%" width="160%" height="160%">
      <feGaussianBlur in="SourceGraphic" stdDeviation="2.2" result="blur"/>
      <feMerge>
        <feMergeNode in="blur"/>
        <feMergeNode in="SourceGraphic"/>
      </feMerge>
    </filter>
  </defs>

  <g transform="translate(-230, 0) scale(2)" filter="url(#glow)" opacity="0.9">
    <path d="M340 58 L398 80 L398 148 Q398 200 340 224 Q282 200 282 148 L282 80 Z"
      fill="url(#shield-bg)"
      stroke="url(#gold)"
      stroke-width="1.2"/>
    <path d="M340 70 L386 89 L386 148 Q386 192 340 213 Q294 192 294 148 L294 89 Z"
      fill="none"
      stroke="url(#gold)"
      stroke-width="0.4"
      opacity="0.4"/>
    <path d="M320 133 L320 116 Q320 98 340 98 Q360 98 360 116 L360 133"
      fill="none"
      stroke="url(#key-grad)"
      stroke-width="4"
      stroke-linecap="round"/>
    <rect x="312" y="132" width="56" height="46" rx="6"
      fill="none"
      stroke="url(#key-grad)"
      stroke-width="3"/>
    <circle cx="340" cy="151" r="7"
      fill="none"
      stroke="url(#key-grad)"
      stroke-width="2"/>
    <line x1="340" y1="158" x2="340" y2="168"
      stroke="url(#key-grad)"
      stroke-width="2.5"
      stroke-linecap="round"/>
  </g>

  <line x1="130" y1="466" x2="770" y2="466"
    stroke="url(#gold-h)" stroke-width="0.8" opacity="0.48"/>
  <text x="450" y="522"
    text-anchor="middle"
    font-family="Georgia, 'Times New Roman', serif"
    font-size="58"
    font-weight="400"
    letter-spacing="18"
    fill="url(#gold)"
    opacity="0.92">CYBEREX</text>
  <text x="450" y="566"
    text-anchor="middle"
    font-family="Georgia, serif"
    font-size="15"
    font-weight="400"
    letter-spacing="5"
    fill="url(#gold)"
    opacity="0.66">YOUR KEYS. YOUR CRYPTO. YOUR RULES.</text>
  <text x="450" y="602"
    text-anchor="middle"
    font-family="Georgia, serif"
    font-size="11"
    letter-spacing="4"
    fill="url(#gold)"
    opacity="0.42">POWERED BY TAILS OS . OPEN SOURCE . COLD STORAGE</text>
</svg>
